<?xml version="1.0" encoding="UTF-8" standalone="no"?><!DOCTYPE svg PUBLIC "-//W3C//DTD SVG 1.1//EN" "http://www.w3.org/Graphics/SVG/1.1/DTD/svg11.dtd"><svg width="100%" height="100%" viewBox="0 0 296 244" version="1.1" xmlns="http://www.w3.org/2000/svg" xmlns:xlink="http://www.w3.org/1999/xlink" xml:space="preserve" xmlns:serif="http://www.serif.com/" style="fill-rule:evenodd;clip-rule:evenodd;stroke-linejoin:round;stroke-miterlimit:2;"><path id="Fashion" d="M182.523,7.078c1.786,-4.214 5.919,-6.951 10.496,-6.951c10.715,-0.127 29.09,-0.127 38.158,-0.127c3.413,-0 6.65,1.512 8.84,4.129c8.722,10.424 31.899,38.122 45.488,54.361c2.385,2.851 3.25,6.678 2.321,10.277c-0.929,3.599 -3.537,6.53 -7.004,7.87c-11.793,4.56 -27.709,10.714 -36.891,14.264c-4.441,1.717 -7.369,5.988 -7.369,10.75c-0,24.824 -0,101.332 -0,130.573c-0,6.366 -5.161,11.526 -11.526,11.526c-32.052,0 -121.981,0 -154.032,0c-6.365,-0 -11.526,-5.16 -11.526,-11.526c0,-29.237 0,-105.729 0,-130.563c0,-4.767 -2.934,-9.041 -7.382,-10.755c-9.212,-3.549 -25.192,-9.707 -37.032,-14.269c-3.474,-1.338 -6.088,-4.273 -7.017,-7.878c-0.929,-3.605 -0.06,-7.437 2.334,-10.289c13.645,-16.249 36.904,-43.949 45.643,-54.356c2.19,-2.608 5.421,-4.114 8.827,-4.114c9.066,0 27.46,0 38.182,0c4.628,0 8.806,2.768 10.612,7.029c5.609,13.439 18.907,22.832 34.381,22.832c15.474,0 28.772,-9.393 34.497,-22.783Z" fill="#FFFFFF"/></svg>