<?xml version="1.0" encoding="UTF-8" standalone="no"?><!DOCTYPE svg PUBLIC "-//W3C//DTD SVG 1.1//EN" "http://www.w3.org/Graphics/SVG/1.1/DTD/svg11.dtd"><svg width="100%" height="100%" viewBox="0 0 278 161" version="1.1" xmlns="http://www.w3.org/2000/svg" xmlns:xlink="http://www.w3.org/1999/xlink" xml:space="preserve" xmlns:serif="http://www.serif.com/" style="fill-rule:evenodd;clip-rule:evenodd;stroke-linejoin:round;stroke-miterlimit:2;"><g id="Gaming"><path d="M161.098,4.878c3.123,-3.123 7.359,-4.878 11.776,-4.878c19.716,0 74.902,0 74.902,0c8.901,0 16.116,7.216 16.116,16.117l0,1.941c0,3.834 3.109,6.942 6.943,6.942c3.834,0 6.943,3.108 6.943,6.942l-0,107.885c-0,11.372 -9.218,20.59 -20.59,20.59l-43.547,-0c-11.371,-0 -20.589,-9.219 -20.589,-20.59l0,-4.441c0,-20.694 -16.776,-37.469 -37.469,-37.469l-33.388,-0c-20.694,-0 -37.469,16.775 -37.469,37.469l-0,4.441c-0,11.371 -9.218,20.59 -20.59,20.59l-43.547,-0c-11.371,-0 -20.589,-9.218 -20.589,-20.59l0,-107.881c-0,-1.842 0.732,-3.609 2.034,-4.912c1.303,-1.302 3.07,-2.034 4.912,-2.034c1.842,0 3.609,-0.732 4.912,-2.034c1.303,-1.303 2.034,-3.07 2.034,-4.912l0,-1.942c0,-8.898 7.214,-16.112 16.113,-16.112c-0,0 55.189,0 74.906,0c4.417,-0 8.653,1.755 11.776,4.878c2.918,2.918 6.762,6.762 10.43,10.43c6.503,6.503 17.048,6.503 23.551,-0c3.668,-3.668 7.512,-7.512 10.43,-10.43Zm76.052,36.968c0.033,-0.402 0.049,-0.81 0.049,-1.221c0,-8.264 -6.709,-14.974 -14.973,-14.974c-8.264,0 -14.974,6.71 -14.974,14.974c0,0.411 0.017,0.819 0.049,1.221c-0.403,-0.032 -0.81,-0.049 -1.221,-0.049c-8.264,0 -14.974,6.71 -14.974,14.974c0,8.264 6.71,14.973 14.974,14.973c0.411,0 0.818,-0.016 1.221,-0.049c-0.032,0.403 -0.049,0.81 -0.049,1.222c0,8.264 6.71,14.973 14.974,14.973c8.264,0 14.973,-6.709 14.973,-14.973c0,-0.412 -0.016,-0.819 -0.049,-1.222c0.403,0.033 0.81,0.049 1.222,0.049c8.264,0 14.973,-6.709 14.973,-14.973c0,-8.264 -6.709,-14.974 -14.973,-14.974c-0.412,0 -0.819,0.017 -1.222,0.049Zm-7.641,17.987c-0.332,-0.96 -0.512,-1.99 -0.512,-3.062c-0,-1.072 0.18,-2.103 0.512,-3.062c0.938,-2.713 3.088,-4.863 5.8,-5.801c0.96,-0.332 1.99,-0.512 3.063,-0.512c5.174,-0 9.375,4.201 9.375,9.375c-0,5.174 -4.201,9.375 -9.375,9.375c-1.073,-0 -2.103,-0.181 -3.063,-0.513c-2.712,-0.938 -4.862,-3.087 -5.8,-5.8Zm-20.367,5.8c-0.96,0.332 -1.99,0.513 -3.062,0.513c-5.174,-0 -9.375,-4.201 -9.375,-9.375c-0,-5.174 4.201,-9.375 9.375,-9.375c1.072,-0 2.102,0.18 3.062,0.512c2.713,0.938 4.862,3.088 5.801,5.801c0.332,0.959 0.512,1.99 0.512,3.062c-0,1.072 -0.18,2.102 -0.512,3.062c-0.939,2.713 -3.088,4.862 -5.801,5.8Zm4.221,-21.946c-0.332,-0.96 -0.512,-1.99 -0.512,-3.062c-0,-5.174 4.2,-9.375 9.375,-9.375c5.174,0 9.375,4.201 9.375,9.375c-0,1.072 -0.181,2.102 -0.513,3.062c-0.938,2.713 -3.087,4.862 -5.8,5.801c-0.96,0.332 -1.99,0.512 -3.062,0.512c-1.072,0 -2.103,-0.18 -3.063,-0.512c-2.712,-0.939 -4.862,-3.088 -5.8,-5.801Zm17.725,26.167c0.332,0.96 0.513,1.991 0.513,3.063c-0,5.174 -4.201,9.375 -9.375,9.375c-5.175,-0 -9.375,-4.201 -9.375,-9.375c-0,-1.072 0.18,-2.103 0.512,-3.063c0.938,-2.712 3.088,-4.862 5.8,-5.8c0.96,-0.332 1.991,-0.512 3.063,-0.512c1.072,-0 2.102,0.18 3.062,0.512c2.713,0.938 4.862,3.088 5.8,5.8Zm-185.475,-3.658l0,12.959l0.153,1.543l0.447,1.47l0.723,1.355l0.984,1.2l1.199,0.983l1.355,0.724l1.47,0.446l1.543,0.153l4.144,-0l1.543,-0.153l1.47,-0.446l1.355,-0.724l1.199,-0.983l0.984,-1.2l0.723,-1.355l0.447,-1.47l0.153,-1.543l-0,-12.959l12.959,-0l1.543,-0.153l1.47,-0.447l1.355,-0.723l1.2,-0.984l0.983,-1.199l0.724,-1.355l0.446,-1.47l0.153,-1.543l-0,-4.144l-0.153,-1.543l-0.446,-1.47l-0.724,-1.355l-0.983,-1.199l-1.2,-0.984l-1.355,-0.723l-1.47,-0.447l-1.543,-0.153l-12.959,0l-0,-12.959l-0.153,-1.543l-0.447,-1.47l-0.723,-1.355l-0.984,-1.2l-1.199,-0.983l-1.355,-0.724l-1.47,-0.446l-1.543,-0.153l-4.144,0l-1.543,0.153l-1.47,0.446l-1.355,0.724l-1.199,0.983l-0.984,1.2l-0.723,1.355l-0.447,1.47l-0.153,1.543l0,12.959l-12.959,0l-1.543,0.153l-1.47,0.447l-1.355,0.723l-1.2,0.984l-0.983,1.199l-0.724,1.355l-0.446,1.47l-0.153,1.543l0,4.144l0.153,1.543l0.446,1.47l0.724,1.355l0.983,1.199l1.2,0.984l1.355,0.723l1.47,0.447l1.543,0.153l12.959,-0Zm4.738,-4.738l-17.697,0c-0.832,0 -1.63,-0.33 -2.218,-0.918c-0.588,-0.589 -0.919,-1.386 -0.919,-2.218l0,-4.144c0,-0.832 0.331,-1.629 0.919,-2.218c0.588,-0.588 1.386,-0.918 2.218,-0.918l17.697,-0l-0,-17.697c-0,-0.832 0.33,-1.63 0.918,-2.218c0.589,-0.588 1.386,-0.919 2.218,-0.919l4.144,0c0.832,0 1.629,0.331 2.218,0.919c0.588,0.588 0.918,1.386 0.918,2.218l0,17.697l17.697,-0c0.832,-0 1.63,0.33 2.218,0.918c0.588,0.589 0.919,1.386 0.919,2.218l-0,4.144c-0,0.832 -0.331,1.629 -0.919,2.218c-0.588,0.588 -1.386,0.918 -2.218,0.918l-17.697,0l0,17.697c0,0.832 -0.33,1.63 -0.918,2.218c-0.589,0.588 -1.386,0.919 -2.218,0.919l-4.144,-0c-0.832,-0 -1.629,-0.331 -2.218,-0.919c-0.588,-0.588 -0.918,-1.386 -0.918,-2.218l-0,-17.697Z" fill="#FFFFFF"/></g></svg>