<?xml version="1.0" encoding="UTF-8" standalone="no"?><!DOCTYPE svg PUBLIC "-//W3C//DTD SVG 1.1//EN" "http://www.w3.org/Graphics/SVG/1.1/DTD/svg11.dtd"><svg width="100%" height="100%" viewBox="0 0 278 130" version="1.1" xmlns="http://www.w3.org/2000/svg" xmlns:xlink="http://www.w3.org/1999/xlink" xml:space="preserve" xmlns:serif="http://www.serif.com/" style="fill-rule:evenodd;clip-rule:evenodd;stroke-linejoin:round;stroke-miterlimit:2;"><g id="Interrior-Designe" serif:id="Interrior Designe"><path d="M206.56,72.071c4.833,0 8.75,3.918 8.75,8.75c0,10.743 0,28.853 0,39.596c0,4.832 -3.917,8.75 -8.75,8.75c-26.935,-0 -108.407,-0 -135.342,-0c-4.833,-0 -8.75,-3.918 -8.75,-8.75c-0,-10.743 -0,-28.853 -0,-39.596c-0,-4.832 3.917,-8.75 8.75,-8.75c26.935,0 108.407,0 135.342,0Z" fill="#FFFFFF"/><path d="M71.218,69.988c-4.833,0 -8.75,-3.917 -8.75,-8.75c-0,-4.542 -0,-9.153 -0,-9.153c-0,-18.392 -14.91,-33.301 -33.301,-33.301c-0,0 -0,-5.147 -0,-10.052c-0,-4.823 3.909,-8.732 8.732,-8.732c35.235,0 166.745,0 201.98,0c4.823,0 8.732,3.909 8.732,8.732c0,4.905 0,10.052 0,10.052c-18.392,0 -33.301,14.909 -33.301,33.301l0,9.153c0,4.833 -3.917,8.75 -8.75,8.75c-26.935,0 -108.407,0 -135.342,0Z" fill="#FFFFFF"/><path d="M29.167,25.002c16.108,-0 29.166,13.058 29.166,29.166c0,22.381 0,51.814 0,66.249c0,4.832 -3.917,8.75 -8.75,8.75c-11.013,-0 -29.819,-0 -40.833,-0c-4.832,-0 -8.75,-3.918 -8.75,-8.75c0,-14.435 -0,-43.868 0,-66.249c0,-16.108 13.058,-29.166 29.167,-29.166c-0,-0 -0,-0 -0,-0Z" fill="#FFFFFF"/><path d="M248.611,25.002c16.108,-0 29.167,13.058 29.167,29.166c-0,22.381 -0,51.814 -0,66.249c-0,4.832 -3.918,8.75 -8.75,8.75c-11.014,-0 -29.82,-0 -40.834,-0c-4.832,-0 -8.75,-3.918 -8.75,-8.75c0,-14.435 0,-43.868 0,-66.249c0,-16.108 13.059,-29.166 29.167,-29.166c0,-0 0,-0 0,-0Z" fill="#FFFFFF"/></g></svg>