<?xml version="1.0" encoding="UTF-8" standalone="no"?><!DOCTYPE svg PUBLIC "-//W3C//DTD SVG 1.1//EN" "http://www.w3.org/Graphics/SVG/1.1/DTD/svg11.dtd">
<svg width="100%" height="100%" viewBox="0 0 278 215" version="1.1" xmlns="http://www.w3.org/2000/svg" xmlns:xlink="http://www.w3.org/1999/xlink" xml:space="preserve" xmlns:serif="http://www.serif.com/" style="fill-rule:evenodd;clip-rule:evenodd;stroke-linejoin:round;stroke-miterlimit:2;">
<g id="Photography">
<path d="M261.184,54.167c4.401,-0 8.621,1.748 11.733,4.86c3.112,3.112 4.861,7.333 4.861,11.734c-0,30.792 -0,96.436 -0,127.228c-0,4.401 -1.749,8.622 -4.861,11.734c-3.112,3.112 -7.332,4.86 -11.733,4.86c-49.409,0 -195.182,0 -244.59,0c-4.401,0 -8.622,-1.748 -11.734,-4.86c-3.112,-3.112 -4.86,-7.333 -4.86,-11.734c-0,-30.792 -0,-96.436 -0,-127.228c-0,-4.401 1.748,-8.622 4.86,-11.734c3.112,-3.112 7.333,-4.86 11.734,-4.86c49.408,-0 195.181,-0 244.59,-0Zm-122.298,17.837c-34.423,0 -62.37,27.948 -62.37,62.371c-0,34.423 27.947,62.371 62.37,62.371c34.424,-0 62.371,-27.948 62.371,-62.371c0,-34.423 -27.947,-62.371 -62.371,-62.371Zm0,16.538c25.296,-0 45.834,20.537 45.834,45.833c-0,25.296 -20.538,45.833 -45.834,45.833c-25.296,0 -45.833,-20.537 -45.833,-45.833c-0,-25.296 20.537,-45.833 45.833,-45.833Z" fill="#FFFFFF"/>
<path d="M111.881,0c9.165,0 16.595,7.429 16.595,16.594c-0,5.406 -0,11.406 -0,16.812c-0,9.165 -7.43,16.594 -16.595,16.594c-17.066,0 -43.495,0 -60.561,0c-9.165,-0 -16.594,-7.429 -16.594,-16.594c-0,-5.406 -0,-11.406 -0,-16.812c-0,-9.165 7.429,-16.594 16.594,-16.594c17.066,-0 43.495,-0 60.561,0Z" fill="#FFFFFF"/>
</g>
</svg>